<svg height="48" viewBox="0 0 48 48" width="48" xmlns="http://www.w3.org/2000/svg" xmlns:xlink="http://www.w3.org/1999/xlink"><linearGradient id="a" x1="25.290341%" x2="74.150922%" y1="7.691272%" y2="89.197453%"><stop offset="0" stop-color="#82d6ee"/><stop offset="1" stop-color="#f7feff"/></linearGradient><g fill="none"><path d="m7.20665928 3h24.58668142c1.6568543 0 3 1.34314575 3 3 0 .06657431-.002216.13313017-.0066445.19955703l-1.6330089 24.49513377c-.0950964 1.4264454-.9442505 2.6936959-2.2273791 3.3240695l-10.7752863 5.2936673c-.8773205.4310088-1.9096127.407574-2.7664702-.0628035l-9.46401231-5.1953314c-1.1964996-.6568263-1.97548156-1.8784253-2.06627531-3.2403315l-1.64096028-24.61440417c-.1102123-1.65318458 1.14061387-3.0827002 2.79379844-3.1929125.06642686-.00442846.13298273-.00664453.19955704-.00664453z" fill="url(#a)"/><g fill="#3776ff"><path d="m24.8552632 33.0062467c.6228101.3664777 1.1096473.7766766 1.4605263 1.2306091.3508789.4539325.5964905 1.0327919.7368421 1.7365955.1403516.7038037.2105263 1.6054084.2105263 2.7048413 0 .8245746.0197366 1.4325852.0592105 1.8240499.0394739.3914648.1184205.6892234.2368421.8932848.1184217.2040614.2609641.337324.4276316.3997918.1666675.0624677.4517524.1228523.8552632.1811556.333335.0416452.609648.1957301.8289473.4622592.2192994.2665292.3289474.6163435.3289474 1.0494535 0 1.0078134-.6447304 1.5117126-1.9342105 1.5117126-.7982496 0-1.5109618-.1582493-2.1381579-.4747527s-1.1118404-.7641825-1.4539474-1.3430505c-.342107-.5788681-.5175438-1.2430988-.5263158-1.9927122-.0263159-1.2660136-.0526314-2.2821408-.0789473-3.0484122-.026316-.7662714-.0657893-1.2618417-.1184211-1.4867257-.1315796-.5580455-.3267531-.9786555-.5855263-1.2618428s-.5964892-.5476302-1.0131579-.7933368c-.4166688-.2457066-.7127184-.4664228-.8881579-.6621551-.1754395-.1957324-.2631579-.5059844-.2631579-.9307653 0-.6163487.2543834-1.0786033.7631579-1.3867777.6315821-.3748066 1.081139-.6933875 1.3486842-.9557522s.4561398-.5996856.5657895-1.0119729c.1096496-.4122873.1732455-.8620486.1907895-1.3492973.0175439-.4872486.0438594-1.659543.0789473-3.5169182.0263159-1.1494071.410084-2.0676697 1.1513158-2.7548152.7412318-.6871456 1.730257-1.0307132 2.9671053-1.0307132 1.2894801 0 1.9342105.4955703 1.9342105 1.4867257 0 .449768-.1074551.8037467-.3223684 1.0619469-.2149134.2582001-.4934194.4081205-.8355263.4497657-.5087745.0666323-.8640341.1665793-1.0657895.2998438-.2017554.1332646-.333333.3914609-.3947369.7745966-.0614038.3831357-.1008771 1.1244089-.118421 2.2238418-.017544 1.0744457-.0855257 1.9552282-.2039474 2.6423737-.1184216.6871456-.3508754 1.2722516-.6973684 1.7553358-.346493.4830841-.8486809.920352-1.5065789 1.3118167z"/><path d="m41.1447368 33.0062467c-.4736865-.2831872-.8596476-.5788636-1.1578947-.887038-.2982471-.3081743-.5438587-.6829754-.7368421-1.1244143-.1929834-.441439-.328947-.9640782-.4078947-1.5679334-.0789478-.6038552-.1184211-1.3138949-.1184211-2.1301405 0-.7912586-.0175437-1.3971869-.0526316-1.8178033-.0350879-.4206163-.1052626-.7267039-.2105263-.9182717-.1052637-.1915679-.252192-.3227482-.4407895-.393545-.1885974-.0707968-.4758752-.127017-.8618421-.1686622-.324563-.0416452-.5986831-.1915656-.8223684-.4497657-.2236853-.2582002-.3355263-.6121789-.3355263-1.0619469 0-.9911554.6359586-1.4867257 1.9078947-1.4867257.8157936 0 1.5328917.1561671 2.1513158.468506.6184242.3123389 1.1052614.7579357 1.4605263 1.3368037.355265.5788681.5372807 1.2389344.5460527 1.9802187.0526318 2.7652402.1140347 4.2852667.1842105 4.5601249.1403516.5497164.3464899.9682443.6184211 1.255596.2719311.2873518.6008752.5413836.9868421.7621031.3859668.2207195.6732446.4393534.8618421.6559084.1885974.216555.2828947.545547.2828947.9869859 0 .6246778-.2499975 1.082768-.75 1.3742843-.6140382.3581486-1.0592091.672565-1.3355263.9432587s-.4692977.6080146-.5789474 1.0119729-.1754385 1.0098867-.1973684 1.8178033c-.0219299.8079165-.0460525 1.8198793-.0723684 3.0359187-.0263159 1.1494071-.41447 2.0718342-1.1644737 2.7673087-.7500038.6954746-1.7478008 1.0432067-2.9934211 1.0432067-.6140381 0-1.0855246-.1290981-1.4144736-.3872983-.3289491-.2582001-.4934211-.6330012-.4934211-1.1244143 0-.2748583.0526311-.5268079.1578947-.7558564.1052637-.2290485.2434202-.4060379.4144737-.5309734.1710535-.1249356.366227-.1998958.5855263-.2248829.3947389-.0499742.6885956-.1124411.881579-.1874024s.3399118-.2165528.4407895-.4247788c.1008777-.2082259.1666665-.5143134.1973684-.9182717s.0460526-.9932288.0460526-1.7678292c.017544-1.1494071.0877187-2.0489296.2105263-2.6985945.1228077-.6496649.3552615-1.207702.6973684-1.6741281.342107-.4664261.8464879-.8995295 1.5131579-1.2993233z"/></g></g></svg>