<svg height="48" viewBox="0 0 48 48" width="48" xmlns="http://www.w3.org/2000/svg" xmlns:xlink="http://www.w3.org/1999/xlink"><linearGradient id="a" x1="0%" x2="100%" y1="0%" y2="100%"><stop offset="0" stop-color="#ff928b"/><stop offset="1" stop-color="#fff2ea"/></linearGradient><g fill="none"><path d="m23.0062026 13.1067077-9.8994949 9.8994949-12.14833826-12.1483382c-.78104858-.7810486-.78104858-2.04737856 0-2.82842715l7.07106781-7.07106781c.78104859-.78104858 2.04737855-.78104858 2.82842715 0z" fill="url(#a)"/><path d="m33.8932923 23.9937974 13.1483383 13.1483382c.7810485.7810486.7810485 2.0473786 0 2.8284271l-7.0710679 7.0710679c-.7810485.7810485-2.0473785.7810485-2.8284271 0l-13.1483382-13.1483383z" fill="url(#a)"/><g fill="#ff4c00"><path d="m11.25 29c-3.735 0-6.75 3.0628571-6.75 6.8571429 0 2.9942857-2.61 4.5714285-4.5 4.5714285 2.07 2.7885715 5.6025 4.5714286 9 4.5714286 4.9725 0 9-4.0914286 9-9.1428571 0-3.7942858-3.015-6.8571429-6.75-6.8571429z"/><path d="m45.2932722 4.94438659-3.2376588-3.23765882c-.9423037-.94230369-2.4644866-.94230369-3.4067902 0l-23.6488232 23.64882313 6.6444491 6.6444491 23.6488231-23.64882316c.9423037-.94230369.9423037-2.46448657 0-3.40679025z"/></g></g></svg>