<svg height="48" viewBox="0 0 48 48" width="48" xmlns="http://www.w3.org/2000/svg" xmlns:xlink="http://www.w3.org/1999/xlink"><linearGradient id="a" x1="14.08944%" x2="86.619971%" y1="7.691272%" y2="90.943786%"><stop offset="0" stop-color="#6797ff"/><stop offset="1" stop-color="#dffff5"/></linearGradient><path d="m24 6c9.9414 0 18 8.0586 18 18s-8.0586 18-18 18-18-8.0586-18-18 8.0586-18 18-18zm-14.99873845 18.6163035c0 7.9323452 6.64358675 14.3864796 14.80877515 14.3864796.1443856 0 .2850689-.0161848.4276034-.0215798-1.4956863-.9531042-3.5707659-2.6021545-2.7599855-5.5441895.7811629-2.8377331-1.0255077-2.1849466-1.6770938-4.3824814-.6515861-2.1975347-5.6458455-.7516935-6.7139284-3.7332914 0 0 .1388323-.330889-1.6345186-2.2784587-.6793525-.7462986-1.3642584-1.5699246-1.84184137-2.4816677-.39058144 1.2875899-.60901088 2.6471122-.60901088 4.0551889zm26.94599595 7.7076918c.0441248.0175694.0829546.0456803.1270793.0650066 1.2113658-1.6071627 2.0607614-3.4551999 2.4904013-5.4183876-.1359042-.0667635-.2718085-.1212285-.4130077-.2073183-2.370382-1.4371729-6.6345985-3.487516-4.9560927-6.9574627.9442698-1.9519548 1.6096711-3.0676086 3.447026-3.3733152-1.4332981-2.2169702-3.4612636-3.9904164-5.8544728-5.1197087 1.0325194 1.0242931 1.3149178 1.5355612.3830029 2.5739098-1.0589941 1.1824173-1.6961556 1.0137515-1.6961556 2.4491674s-3.6905947-1.0137515-3.9023935.5481638c-.2117989 1.5619152.6795212 1.7305809-.3812379 2.702166-1.0607592.9715851-1.4790619 2.219009-1.3943424 3.4857591.0847196 1.2667502-.7607108-.0421664-1.1419487-1.0137515s-1.4102272.187992-2.6827852-.4023381c-1.272558-.5903302-2.6721953 2.7864989-.8489603 3.4629189 1.8232349.67642 1.6537959.4216644 2.6298355 1.2245837.9760396.8011624.8948501 2.243606 2.2521276 2.4122718s2.6686653-.7660237 5.086702-.7660237 3.7594293 3.0676086 6.8552222 4.3343587z" fill="url(#a)"/></svg>