<svg height="48" viewBox="0 0 48 48" width="48" xmlns="http://www.w3.org/2000/svg" xmlns:xlink="http://www.w3.org/1999/xlink"><linearGradient id="a" x1="41.575431%" x2="68%" y1="5.747126%" y2="107.294922%"><stop offset="0" stop-color="#46e097" stop-opacity=".974732"/><stop offset="1" stop-color="#fff"/></linearGradient><g fill="none"><path d="m8 4h16c2.209139 0 4 1.790861 4 4v32c0 2.209139-1.790861 4-4 4h-16c-2.209139 0-4-1.790861-4-4v-32c0-2.209139 1.790861-4 4-4z" fill="url(#a)"/><path d="m34 20h7c1.6568542 0 3 1.3431458 3 3v18c0 1.6568542-1.3431458 3-3 3h-7c-1.6568542 0-3-1.3431458-3-3v-18c0-1.6568542 1.3431458-3 3-3z" fill="#46e097"/></g></svg>